<svg width="32" height="32" viewBox="0 0 32 32" fill="none" xmlns="http://www.w3.org/2000/svg">
<path d="M0 12.7127C0 15.6509 1.57091 18.3273 4.01455 20.1309C4.21818 20.2764 4.33455 20.5091 4.33455 20.7709C4.33455 20.8582 4.30545 20.9455 4.30545 21.0327C4.10182 21.76 3.81091 22.9527 3.78182 23.0109C3.75273 23.0982 3.72364 23.2145 3.72364 23.3018C3.72364 23.5055 3.89818 23.68 4.10182 23.68C4.18909 23.68 4.24727 23.6509 4.33455 23.5927L6.86545 22.1091C7.06909 21.9927 7.27273 21.9345 7.47636 21.9345C7.59273 21.9345 7.70909 21.9636 7.82545 21.9927C9.01818 22.3418 10.2982 22.5164 11.6073 22.5164C18.0073 22.5164 23.1855 18.1236 23.1855 12.7127C23.1855 7.30182 17.9782 2.90909 11.5782 2.90909C5.17818 2.90909 0 7.30182 0 12.7127Z" fill="white"/>
<path d="M0 12.7127C0 15.6509 1.57091 18.3273 4.01455 20.1309C4.21818 20.2764 4.33455 20.5091 4.33455 20.7709C4.33455 20.8582 4.30545 20.9455 4.30545 21.0327C4.10182 21.76 3.81091 22.9527 3.78182 23.0109C3.75273 23.0982 3.72364 23.2145 3.72364 23.3018C3.72364 23.5055 3.89818 23.68 4.10182 23.68C4.18909 23.68 4.24727 23.6509 4.33455 23.5927L6.86545 22.1091C7.06909 21.9927 7.27273 21.9345 7.47636 21.9345C7.59273 21.9345 7.70909 21.9636 7.82545 21.9927C9.01818 22.3418 10.2982 22.5164 11.6073 22.5164C18.0073 22.5164 23.1855 18.1236 23.1855 12.7127C23.1855 7.30182 17.9782 2.90909 11.5782 2.90909C5.17818 2.90909 0 7.30182 0 12.7127Z" fill="url(#paint0_linear_270_8)"/>
<path d="M12.6836 19.9855C12.6836 24.4945 17.0181 28.1309 22.3418 28.1309C23.4472 28.1309 24.4945 27.9855 25.4836 27.6945C25.5709 27.6655 25.6581 27.6655 25.7745 27.6655C25.949 27.6655 26.1236 27.7236 26.2981 27.8109L28.4218 29.0618C28.48 29.0909 28.5381 29.12 28.5963 29.12C28.7709 29.12 28.9163 28.9745 28.9163 28.8C28.9163 28.7127 28.8872 28.6255 28.8581 28.5673C28.8581 28.5091 28.5963 27.5491 28.4218 26.9091C28.3927 26.8509 28.3927 26.7636 28.3927 26.7055C28.3927 26.4727 28.509 26.2982 28.6545 26.1818C30.6909 24.6982 32 22.4873 32 20.0145C32 15.5055 27.6654 11.8691 22.3418 11.8691C17.0181 11.8109 12.6836 15.4764 12.6836 19.9855Z" fill="url(#paint1_linear_270_8)"/>
<path d="M24.3779 17.4837C24.3779 18.2109 24.9597 18.7927 25.6579 18.7927C26.3852 18.7927 26.9379 18.2109 26.9379 17.4837C26.9379 16.7564 26.3561 16.1746 25.6579 16.1746C24.9597 16.1746 24.3779 16.7564 24.3779 17.4837Z" fill="#919191"/>
<path d="M17.9199 17.4837C17.9199 18.2109 18.5017 18.7927 19.1999 18.7927C19.9272 18.7927 20.4799 18.2109 20.4799 17.4837C20.4799 16.7564 19.8981 16.1746 19.1999 16.1746C18.5017 16.1746 17.9199 16.7564 17.9199 17.4837Z" fill="#919191"/>
<path d="M9.25063 9.54183C9.25063 10.4146 8.55245 11.1127 7.70881 11.1127C6.86517 11.1127 6.16699 10.4146 6.16699 9.54183C6.16699 8.6691 6.86517 7.97092 7.70881 7.97092C8.58154 7.97092 9.25063 8.69819 9.25063 9.54183Z" fill="#168743"/>
<path d="M17.0182 9.54183C17.0182 10.4146 16.32 11.1127 15.4764 11.1127C14.6328 11.1127 13.9346 10.4146 13.9346 9.54183C13.9346 8.6691 14.6328 7.97092 15.4764 7.97092C16.32 7.97092 17.0182 8.69819 17.0182 9.54183Z" fill="#168743"/>
<defs>
<linearGradient id="paint0_linear_270_8" x1="11.5896" y1="23.6501" x2="11.5896" y2="2.90909" gradientUnits="userSpaceOnUse">
<stop offset="0.0601963" stop-color="#05CD66"/>
<stop offset="0.2202" stop-color="#0ED169"/>
<stop offset="0.4805" stop-color="#26DB6F"/>
<stop offset="0.8069" stop-color="#4DEB7A"/>
<stop offset="0.9517" stop-color="#61F380"/>
</linearGradient>
<linearGradient id="paint1_linear_270_8" x1="22.3485" y1="29.0909" x2="22.3485" y2="11.8196" gradientUnits="userSpaceOnUse">
<stop offset="0.0809942" stop-color="#D9D9D9"/>
<stop offset="1" stop-color="#F0F0F0"/>
</linearGradient>
</defs>
</svg>
