<svg width="32" height="32" viewBox="0 0 32 32" fill="none" xmlns="http://www.w3.org/2000/svg">
<g clip-path="url(#clip0_270_4)">
<path fill-rule="evenodd" clip-rule="evenodd" d="M1.6625e-05 15.993C0.00315623 7.17449 7.18055 4.45168e-05 16.0062 4.45168e-05C18.1082 -0.00493005 20.1903 0.407058 22.132 1.21216C24.0736 2.01726 25.8363 3.19948 27.318 4.69039C28.8079 6.17319 29.9889 7.93679 30.7925 9.87909C31.5962 11.8214 32.0066 13.9038 31.9999 16.0058C31.9965 24.8248 24.8191 32 16.0002 32H15.9942C13.1225 31.9984 10.3066 31.2277 7.8506 29.7702L7.26585 29.4238L1.21007 31.0116L2.82671 25.1099L2.44603 24.5048C0.843687 21.9552 -0.00432989 19.0042 1.6625e-05 15.993ZM10.7441 8.7372C11.0499 8.74943 11.3886 8.76375 11.7105 9.47048V9.47071C11.9297 9.95286 12.2983 10.8505 12.5927 11.5676C12.8109 12.099 12.9883 12.5312 13.0341 12.6216C13.1415 12.8337 13.2128 13.0822 13.0698 13.365C13.0478 13.4085 13.0276 13.4495 13.0082 13.4886C12.9017 13.7039 12.823 13.863 12.6409 14.0727C12.5682 14.1564 12.493 14.2468 12.4178 14.3371C12.2708 14.5138 12.124 14.6902 11.9964 14.8161C11.781 15.0276 11.5568 15.2576 11.8077 15.6821C12.0586 16.1067 12.9203 17.4962 14.1969 18.6213C15.571 19.8322 16.7642 20.3435 17.3682 20.6024C17.4855 20.6526 17.5806 20.6934 17.6504 20.7278C18.0803 20.94 18.3305 20.9045 18.5811 20.6212C18.8318 20.3379 19.6538 19.3823 19.9404 18.9574C20.227 18.5326 20.5132 18.603 20.9068 18.7448C21.3004 18.8866 23.4115 19.9133 23.8413 20.1257C23.9258 20.1675 24.0048 20.2051 24.078 20.24C24.3769 20.3824 24.5786 20.4786 24.6647 20.6212C24.772 20.7987 24.7717 21.6479 24.4141 22.6391C24.0564 23.6303 22.3033 24.5864 21.5156 24.657C21.4398 24.6638 21.3644 24.6726 21.2868 24.6816C20.559 24.7661 19.6405 24.8728 16.3622 23.5949C12.3242 22.0211 9.6628 18.1193 9.11668 17.3186C9.07241 17.2537 9.04204 17.2092 9.02597 17.188L9.02087 17.1812C8.78833 16.8739 7.27257 14.8707 7.27257 12.7982C7.27257 10.8444 8.24397 9.81986 8.69129 9.34805C8.7221 9.31555 8.75043 9.28567 8.77578 9.2583C9.16916 8.83347 9.63449 8.72727 9.92088 8.72727L10.7441 8.7372Z" fill="#25D366"/>
</g>
<defs>
<clipPath id="clip0_270_4">
<rect width="32" height="32" fill="white"/>
</clipPath>
</defs>
</svg>
