<svg width="32" height="32" fill="none" xmlns="http://www.w3.org/2000/svg"><g clip-path="url(#clip0_270_4)"><path fill-rule="evenodd" clip-rule="evenodd" d="M0 15.993C.003 7.174 7.18 0 16.006 0a15.895 15.895 0 0111.312 4.69A15.893 15.893 0 0132 16.006C31.997 24.825 24.82 32 16 32h-.006a15.98 15.98 0 01-8.143-2.23l-.585-.346-6.056 1.588 1.617-5.902-.381-.605A15.953 15.953 0 010 15.993zm10.744-7.256c.306.012.645.027.966.733.22.483.588 1.38.883 2.098.218.531.395.963.441 1.054.107.212.179.46.036.743l-.062.124a2.376 2.376 0 01-.367.584c-.073.083-.148.174-.223.264a7.123 7.123 0 01-.422.48c-.215.21-.44.44-.188.865.25.425 1.112 1.814 2.389 2.94 1.374 1.21 2.567 1.721 3.171 1.98.117.05.213.091.282.126.43.212.68.176.931-.107.25-.283 1.073-1.239 1.36-1.664.286-.424.572-.354.966-.212.393.142 2.505 1.168 2.934 1.38.085.043.164.08.237.115.299.142.5.239.587.381.107.178.107 1.027-.25 2.018-.359.991-2.112 1.947-2.9 2.018-.075.007-.15.016-.228.025-.728.084-1.646.19-4.925-1.087-4.038-1.574-6.7-5.476-7.245-6.276a4.481 4.481 0 00-.091-.131l-.005-.007c-.233-.307-1.748-2.31-1.748-4.383 0-1.954.971-2.978 1.418-3.45.031-.032.06-.062.085-.09a1.586 1.586 0 011.145-.53l.823.01z" fill="#25D366"/></g><defs><clipPath id="clip0_270_4"><path fill="#fff" d="M0 0h32v32H0z"/></clipPath></defs></svg>