<svg width="32" height="32" fill="none" xmlns="http://www.w3.org/2000/svg"><path d="M0 12.713c0 2.938 1.57 5.614 4.015 7.418.203.145.32.378.32.64 0 .087-.03.174-.03.262-.203.727-.494 1.92-.523 1.978-.03.087-.058.204-.058.29 0 .205.174.379.378.379.087 0 .145-.03.233-.087l2.53-1.484a1.23 1.23 0 01.611-.175c.117 0 .233.03.35.059a13.49 13.49 0 003.781.523c6.4 0 11.579-4.392 11.579-9.803 0-5.411-5.208-9.804-11.608-9.804S0 7.302 0 12.713z" fill="#fff"/><path d="M0 12.713c0 2.938 1.57 5.614 4.015 7.418.203.145.32.378.32.64 0 .087-.03.174-.03.262-.203.727-.494 1.92-.523 1.978-.03.087-.058.204-.058.29 0 .205.174.379.378.379.087 0 .145-.03.233-.087l2.53-1.484a1.23 1.23 0 01.611-.175c.117 0 .233.03.35.059a13.49 13.49 0 003.781.523c6.4 0 11.579-4.392 11.579-9.803 0-5.411-5.208-9.804-11.608-9.804S0 7.302 0 12.713z" fill="url(#paint0_linear_270_8)"/><path d="M12.684 19.985c0 4.51 4.334 8.146 9.658 8.146 1.105 0 2.152-.146 3.142-.436.087-.03.174-.03.29-.03.175 0 .35.059.524.146l2.124 1.25a.4.4 0 00.174.059c.175 0 .32-.146.32-.32a.548.548 0 00-.058-.233c0-.058-.262-1.018-.436-1.658-.03-.058-.03-.145-.03-.203a.66.66 0 01.262-.524C30.691 24.698 32 22.487 32 20.015c0-4.51-4.335-8.146-9.658-8.146-5.324-.058-9.658 3.607-9.658 8.116z" fill="url(#paint1_linear_270_8)"/><path d="M24.378 17.484c0 .727.582 1.309 1.28 1.309.727 0 1.28-.582 1.28-1.31 0-.727-.582-1.308-1.28-1.308-.698 0-1.28.581-1.28 1.309zm-6.458 0c0 .727.582 1.309 1.28 1.309.727 0 1.28-.582 1.28-1.31 0-.727-.582-1.308-1.28-1.308-.698 0-1.28.581-1.28 1.309z" fill="#919191"/><path d="M9.25 9.542c0 .873-.698 1.57-1.541 1.57-.844 0-1.542-.697-1.542-1.57 0-.873.698-1.571 1.542-1.571.873 0 1.542.727 1.542 1.57zm7.768 0c0 .873-.698 1.57-1.542 1.57-.843 0-1.541-.697-1.541-1.57 0-.873.698-1.571 1.541-1.571.844 0 1.542.727 1.542 1.57z" fill="#168743"/><defs><linearGradient id="paint0_linear_270_8" x1="11.59" y1="23.65" x2="11.59" y2="2.909" gradientUnits="userSpaceOnUse"><stop offset=".06" stop-color="#05CD66"/><stop offset=".22" stop-color="#0ED169"/><stop offset=".48" stop-color="#26DB6F"/><stop offset=".807" stop-color="#4DEB7A"/><stop offset=".952" stop-color="#61F380"/></linearGradient><linearGradient id="paint1_linear_270_8" x1="22.349" y1="29.091" x2="22.349" y2="11.82" gradientUnits="userSpaceOnUse"><stop offset=".081" stop-color="#D9D9D9"/><stop offset="1" stop-color="#F0F0F0"/></linearGradient></defs></svg>