<svg width="640" height="190" fill="none" xmlns="http://www.w3.org/2000/svg"><mask id="a" style="mask-type:alpha" maskUnits="userSpaceOnUse" x="0" y="0" width="640" height="190"><path d="M0 0h640v160c0 16.569-13.431 30-30 30H30c-16.569 0-30-13.431-30-30V0z" fill="#B5B5B5"/></mask><g mask="url(#a)" stroke-width="8"><path d="M-10 176C2 136 49 54.4 141 48c115-8 142 112 269 120C511.6 174.4 611.667 56 649-4" stroke="#007392"/><path d="M-13 11c36.152 1.33 158.325 74.937 204 88.185 89 25.815 145 7.994 178.53 0C478.201 73.278 515-15 648 46.451" stroke="url(#paint0_linear_73_14)"/></g><defs><linearGradient id="paint0_linear_73_14" x1="26.112" y1="11" x2="511.004" y2="285.087" gradientUnits="userSpaceOnUse"><stop stop-color="#fff"/><stop offset="1" stop-color="#fff" stop-opacity="0"/></linearGradient></defs></svg>