<svg width="358" height="140" fill="none" xmlns="http://www.w3.org/2000/svg"><mask id="a" style="mask-type:alpha" maskUnits="userSpaceOnUse" x="0" y="0" width="358" height="140"><path d="M0 0h358v110c0 16.569-13.431 30-30 30H30c-16.569 0-30-13.431-30-30V0z" fill="#B5B5B5"/></mask><g mask="url(#a)" stroke-width="8"><path d="M-11 127c7.502-28.222 36.886-85.796 94.404-90.311 71.896-5.645 88.777 79.022 168.176 84.667C315.099 125.871 377.66 42.333 401 0" stroke="#007392"/><path d="M-13 11c22.588.942 98.923 53.08 127.461 62.463 55.609 18.285 90.598 5.662 111.548 0C293.908 55.113 316.9-7.417 400 36.111" stroke="url(#paint0_linear_147_52)"/></g><defs><linearGradient id="paint0_linear_147_52" x1="11.438" y1="11" x2="331.606" y2="170.64" gradientUnits="userSpaceOnUse"><stop stop-color="#fff"/><stop offset="1" stop-color="#fff" stop-opacity="0"/></linearGradient></defs></svg>