<svg width="358" height="140" fill="none" xmlns="http://www.w3.org/2000/svg"><mask id="a" style="mask-type:alpha" maskUnits="userSpaceOnUse" x="0" y="0" width="358" height="140"><path d="M0 0h358v110c0 16.569-13.431 30-30 30H30c-16.569 0-30-13.431-30-30V0z" fill="#B5B5B5"/></mask><g mask="url(#a)" stroke-width="8"><path d="M-4 39c15.452 12.296 56.132 39.231 95.24 48.605 48.883 11.717 68.268 7.811 123.052 0 54.783-7.812 93.553-18.66 151.708-3.038" stroke="#BAF0FF"/><path d="M-13 23c20.729 1.315 67.733 10.785 89.918 38.143 27.732 34.198 66.388 68.834 129.415 49.104C269.359 90.518 321.461 58.951 366 58.074" stroke="url(#paint0_linear_147_45)"/></g><defs><linearGradient id="paint0_linear_147_45" x1="9.426" y1="23" x2="340.729" y2="131.53" gradientUnits="userSpaceOnUse"><stop stop-color="#fff"/><stop offset="1" stop-color="#fff" stop-opacity="0"/></linearGradient></defs></svg>