<svg width="190" height="400" fill="none" xmlns="http://www.w3.org/2000/svg"><mask id="a" style="mask-type:alpha" maskUnits="userSpaceOnUse" x="0" y="0" width="190" height="400"><path d="M160 400c16.569 0 30-13.431 30-30V30c0-16.569-13.431-30-30-30H0v370c0 16.569 13.431 30 30 30h130z" fill="#B5B5B5"/></mask><g mask="url(#a)" stroke-width="8"><path d="M158 406.5c-21.298-18.751-67.954-68.117-84.19-115.574-20.297-59.321-13.531-82.845 0-149.326 13.53-66.48 32.322-113.528 5.26-184.1" stroke="#007392"/><path d="M185 409.438c-2.263-24.855-18.555-81.215-65.623-107.816C60.543 268.37.954 222.02 34.897 146.448S123.15 8.404 124.657-45" stroke="url(#paint0_linear_121_8067)"/></g><defs><linearGradient id="paint0_linear_121_8067" x1="185" y1="382.548" x2="89.547" y2="-35.536" gradientUnits="userSpaceOnUse"><stop stop-color="#fff"/><stop offset="1" stop-color="#fff" stop-opacity="0"/></linearGradient></defs></svg>