<svg width="1440" height="407" fill="none" xmlns="http://www.w3.org/2000/svg"><path d="M-6 404c26.659-88.889 131.071-270.222 335.454-284.444 255.478-17.778 315.46 248.888 597.596 266.666C1152.76 400.444 1375.06 137.333 1458 4" stroke="#007392" stroke-width="14"/><path d="M-13 37c80.344 2.956 351.859 166.61 453.368 196.065 197.792 57.395 322.246 17.773 396.763 0C1078.64 175.464 1160.42-20.807 1456 115.82" stroke="url(#paint0_linear_2078_3)" stroke-width="14"/><path d="M1456 376c-80.34-2.956-351.86-166.61-453.37-196.065-197.79-57.395-322.244-17.773-396.761 0C364.36 237.536 282.578 433.807-13.001 297.18" stroke="url(#paint1_linear_2078_3)" stroke-width="14"/><defs><linearGradient id="paint0_linear_2078_3" x1="73.923" y1="37" x2="1151.76" y2="645.995" gradientUnits="userSpaceOnUse"><stop stop-color="#fff"/><stop offset="1" stop-color="#fff" stop-opacity="0"/></linearGradient><linearGradient id="paint1_linear_2078_3" x1="1369.08" y1="376" x2="291.237" y2="-232.995" gradientUnits="userSpaceOnUse"><stop stop-color="#fff"/><stop offset="1" stop-color="#fff" stop-opacity="0"/></linearGradient></defs></svg>