<svg width="390" height="223" fill="none" xmlns="http://www.w3.org/2000/svg"><g clip-path="url(#clip0_163_574)" stroke-width="8"><path d="M-7.753 205C1.311 163.222 36.811 77.996 106.3 71.311c86.861-8.355 107.254 116.978 203.18 125.333C386.22 203.329 461.801 79.667 490 17" stroke="#007392"/><path d="M-10 33c27.285 1.386 119.492 78.145 153.965 91.96 67.171 26.919 109.436 8.336 134.742 0 82.017-27.016 109.79-119.073 210.169-54.991" stroke="url(#paint0_linear_163_574)"/><path d="M488.876 192c-27.285-1.386-119.492-78.145-153.965-91.96-67.171-26.92-109.435-8.336-134.742 0-82.017 27.017-109.79 119.073-210.17 54.991" stroke="url(#paint1_linear_163_574)"/></g><defs><linearGradient id="paint0_linear_163_574" x1="19.519" y1="33" x2="433.178" y2="202.229" gradientUnits="userSpaceOnUse"><stop stop-color="#fff"/><stop offset="1" stop-color="#fff" stop-opacity="0"/></linearGradient><linearGradient id="paint1_linear_163_574" x1="459.357" y1="192" x2="45.698" y2="22.771" gradientUnits="userSpaceOnUse"><stop stop-color="#fff"/><stop offset="1" stop-color="#fff" stop-opacity="0"/></linearGradient><clipPath id="clip0_163_574"><path fill="#fff" transform="translate(0 -547)" d="M0 0h390v844H0z"/></clipPath></defs></svg>