<svg width="640" height="190" fill="none" xmlns="http://www.w3.org/2000/svg"><mask id="a" style="mask-type:alpha" maskUnits="userSpaceOnUse" x="0" y="0" width="640" height="190"><path d="M0 0h640v160c0 16.569-13.431 30-30 30H30c-16.569 0-30-13.431-30-30V0z" fill="#B5B5B5"/></mask><g mask="url(#a)" stroke-width="8"><path d="M-1 32c26.936 21.298 97.852 67.954 166.025 84.191 85.216 20.296 119.009 13.53 214.51 0C475.036 102.66 542.622 83.867 644 110.929" stroke="#007392"/><path d="M-13 5c36.152 2.263 118.13 18.555 156.823 65.623 48.365 58.834 115.785 118.423 225.707 84.48S570.322 66.851 648 65.343" stroke="url(#paint0_linear_73_13)"/></g><defs><linearGradient id="paint0_linear_73_13" x1="26.112" y1="5" x2="602.381" y2="196.371" gradientUnits="userSpaceOnUse"><stop offset="0" stop-color="#fff"><animate attributeName="stop-color" values="red;purple;blue;green;yellow;orange;red;" dur="20s" repeatCount="indefinite"/></stop><stop offset=".5" stop-color="#fff" stop-opacity=".5"/><stop offset="1" stop-color="#fff" stop-opacity="0"/></linearGradient></defs></svg>