<svg width="390" height="191" fill="none" xmlns="http://www.w3.org/2000/svg"><path d="M-7.753 190C1.311 148.222 36.811 62.996 106.3 56.311c86.861-8.355 107.254 116.978 203.18 125.333C386.22 188.329 461.801 64.667 490 2" stroke="#007392" stroke-width="8"><animate attributeName="d" values="M-7.75293 190C1.31085 148.222 36.8107 62.9956 106.3 56.3111C193.161 47.9556 213.554 173.289 309.48 181.644C386.22 188.329 461.801 64.6667 490 2; M -8.243 172.87 C 38.677 182.56 74.887 174.91 107.017 150.43 C 176.887 89.23 200.347 43.84 296.737 42.82 C 384.967 40.78 422.197 89.74 465.037 153.49; M-7.75293 190C1.31085 148.222 36.8107 62.9956 106.3 56.3111C193.161 47.9556 213.554 173.289 309.48 181.644C386.22 188.329 461.801 64.6667 490 2;" dur="30s" repeatCount="indefinite"/></path><path d="M-10 4c27.285 1.386 119.492 78.145 153.965 91.96 67.171 26.919 109.436 8.336 134.742 0 82.017-27.016 109.79-119.073 210.169-54.991" stroke="url(#paint0_linear_163_585)" stroke-width="8"><animate attributeName="d" values="M-10 4C17.2852 5.38633 109.492 82.1446 143.965 95.9599C211.136 122.879 253.401 104.296 278.707 95.9599C360.724 68.9435 388.497 -23.1128 488.876 40.9688; M -10 4 C -8.444 51.557 96.847 103.18 145.059 103.008 C 211.472 99.248 235.872 69.957 276.251 53.09 C 331.452 29.067 462.299 66.89 483.766 143.559; M-10 4C17.2852 5.38633 109.492 82.1446 143.965 95.9599C211.136 122.879 253.401 104.296 278.707 95.9599C360.724 68.9435 388.497 -23.1128 488.876 40.9688;" dur="30s" repeatCount="indefinite"/></path><path d="M488.876 110c-27.285-1.386-119.492-78.145-153.965-91.96-67.171-26.92-109.435-8.336-134.742 0-82.017 27.017-109.79 119.073-210.17 54.991" stroke="url(#paint0_linear_163_586)" stroke-width="8"><animate attributeName="d" values="M488.876 110C461.591 108.614 369.384 31.8554 334.911 18.0401C267.74 -8.87941 225.476 9.70428 200.169 18.0401C118.152 45.0565 90.3789 137.113 -10.0001 73.0312; M 488.876 40 C 458.721 111.358 389.72 137.936 334.911 98.0401 C 270.628 46.446 255.295 37.756 200.169 28.0401 C 122.914 14.756 79.468 30.09 -10.0001 73.0312; M488.876 110C461.591 108.614 369.384 31.8554 334.911 18.0401C267.74 -8.87941 225.476 9.70428 200.169 18.0401C118.152 45.0565 90.3789 137.113 -10.0001 73.0312;" dur="30s" repeatCount="indefinite"/></path><defs><linearGradient id="paint0_linear_163_585" x1="19.519" y1="4" x2="433.178" y2="173.229" gradientUnits="userSpaceOnUse"><stop stop-color="#fff"/><stop offset="1" stop-color="#fff" stop-opacity="0"/></linearGradient><linearGradient id="paint0_linear_163_586" x1="459.357" y1="110" x2="45.698" y2="-59.229" gradientUnits="userSpaceOnUse"><stop stop-color="#fff"/><stop offset="1" stop-color="#fff" stop-opacity="0"/></linearGradient></defs></svg>