<svg width="640" height="190" viewBox="0 0 640 190" fill="none" xmlns="http://www.w3.org/2000/svg">
<mask id="mask0_73_14" style="mask-type:alpha" maskUnits="userSpaceOnUse" x="0" y="0" width="640" height="190">
<path d="M0 0H640V160C640 176.569 626.569 190 610 190H30C13.4315 190 0 176.569 0 160V0Z" fill="#B5B5B5"/>
</mask>
<g mask="url(#mask0_73_14)">
<path d="M-10 176C2 136 49 54.4 141 48C256 40 283 160 410 168C511.6 174.4 611.667 56 649 -4" stroke="#007392" stroke-width="8"/>
<path d="M-13 11C23.1523 12.3294 145.325 85.9372 191 99.1854C280 125 336 107.179 369.53 99.1854C478.201 73.2779 515 -15 648 46.4514" stroke="url(#paint0_linear_73_14)" stroke-width="8"/>
</g>
<defs>
<linearGradient id="paint0_linear_73_14" x1="26.1124" y1="11" x2="511.004" y2="285.087" gradientUnits="userSpaceOnUse">
<stop stop-color="white"/>
<stop offset="1" stop-color="white" stop-opacity="0"/>
</linearGradient>
</defs>
</svg>
