<svg width="358" height="140" viewBox="0 0 358 140" fill="none" xmlns="http://www.w3.org/2000/svg">
<mask id="mask0_147_52" style="mask-type:alpha" maskUnits="userSpaceOnUse" x="0" y="0" width="358" height="140">
<path d="M0 0H358V110C358 126.569 344.569 140 328 140H30C13.4315 140 0 126.569 0 110V0Z" fill="#B5B5B5"/>
</mask>
<g mask="url(#mask0_147_52)">
<path d="M-11 127C-3.49772 98.7778 25.8862 41.2045 83.4036 36.6889C155.3 31.0445 172.181 115.711 251.58 121.356C315.099 125.871 377.66 42.3333 401 0" stroke="#007392" stroke-width="8"/>
<path d="M-13 11C9.58832 11.9417 85.9229 64.0794 114.461 73.4633C170.07 91.7483 205.059 79.1254 226.009 73.4633C293.908 55.1126 316.9 -7.41627 400 36.1109" stroke="url(#paint0_linear_147_52)" stroke-width="8"/>
</g>
<defs>
<linearGradient id="paint0_linear_147_52" x1="11.4379" y1="11" x2="331.606" y2="170.64" gradientUnits="userSpaceOnUse">
<stop stop-color="white"/>
<stop offset="1" stop-color="white" stop-opacity="0"/>
</linearGradient>
</defs>
</svg>
