<svg width="190" height="400" viewBox="0 0 190 400" fill="none" xmlns="http://www.w3.org/2000/svg">
<mask id="mask0_121_8067" style="mask-type:alpha" maskUnits="userSpaceOnUse" x="0" y="0" width="190" height="400">
<path d="M160 400C176.569 400 190 386.569 190 370L190 30C190 13.4315 176.569 -5.87108e-07 160 -1.31134e-06L2.22577e-06 -8.30516e-06L-1.39474e-05 370C-1.46717e-05 386.569 13.4314 400 30 400L160 400Z" fill="#B5B5B5"/>
</mask>
<g mask="url(#mask0_121_8067)">
<path d="M158 406.5C136.702 387.749 90.0461 338.383 73.8094 290.926C53.5134 231.605 60.2787 208.081 73.8094 141.6C87.34 75.1196 106.133 28.0718 79.0713 -42.5" stroke="#007392" stroke-width="8"/>
<path d="M185 409.438C182.737 384.583 166.445 328.223 119.377 301.622C60.5429 268.37 0.954293 222.02 34.8972 146.448C68.84 70.8765 123.149 8.40396 124.657 -45" stroke="url(#paint0_linear_121_8067)" stroke-width="8"/>
</g>
<defs>
<linearGradient id="paint0_linear_121_8067" x1="185" y1="382.548" x2="89.5475" y2="-35.536" gradientUnits="userSpaceOnUse">
<stop stop-color="white"/>
<stop offset="1" stop-color="white" stop-opacity="0"/>
</linearGradient>
</defs>
</svg>
